<svg width="21" height="23" viewBox="0 0 21 23" fill="none" xmlns="http://www.w3.org/2000/svg">
<path fill-rule="evenodd" clip-rule="evenodd" d="M9.49943 1.86267C10.4945 1.13203 11.6956 0.655387 13.0149 0.537563C14.9078 0.368518 16.7726 0.29897 18.1882 1.24329C19.6692 2.23119 20.3603 4.09253 20.6098 6.88717C20.7458 8.40924 20.0833 10.2041 19.0086 11.6259C18.845 11.8424 18.6687 12.0543 18.4804 12.2588C18.4744 12.2777 18.4679 12.2965 18.4608 12.3153L15.2852 20.6772C14.8657 21.7819 13.8521 22.5499 12.6752 22.6551C10.3519 22.8625 8.64738 20.5164 9.56268 18.371L11.3702 14.1343C11.0942 14.0396 10.8255 13.9281 10.5656 13.8009L5.9601 13.6717C5.59348 13.6614 5.34292 13.6544 5.11725 13.6276C2.93701 13.3678 1.18131 11.7161 0.789107 9.5558C0.748507 9.33216 0.726243 9.08254 0.693654 8.71714L0.684549 8.61519C0.651876 8.24979 0.629555 8.00017 0.629886 7.77289C0.633084 5.57723 2.06833 3.64057 4.16805 2.99863C4.3854 2.93219 4.63073 2.88091 4.9898 2.80585L9.49943 1.86267ZM7.39194 4.34672C6.81815 5.47702 6.54426 6.77683 6.66532 8.13246C6.78639 9.48809 7.28627 10.7188 8.05125 11.7295L6.06741 11.6739C5.63039 11.6616 5.47758 11.6563 5.35383 11.6416C4.04568 11.4858 2.99226 10.4947 2.75694 9.19854C2.73468 9.07591 2.72007 8.92375 2.68118 8.48826C2.64229 8.05277 2.6297 7.90044 2.62988 7.7758C2.6318 6.45841 3.49295 5.29641 4.75278 4.91125C4.87198 4.87481 5.02138 4.84252 5.44934 4.75301L7.39194 4.34672ZM13.386 14.506L11.4023 19.1558C11.0802 19.9106 11.6799 20.736 12.4973 20.663C12.9113 20.626 13.2679 20.3558 13.4155 19.9672L15.6079 14.1943C15.1804 14.3405 14.7304 14.4401 14.2602 14.4821C13.9658 14.5084 13.674 14.516 13.386 14.506ZM12.5566 5.6425C12.0065 5.69162 11.6004 6.17739 11.6495 6.72748C11.6986 7.27758 12.1844 7.68369 12.7345 7.63457L15.1214 7.42141C15.6715 7.37228 16.0776 6.88651 16.0285 6.33642C15.9794 5.78632 15.4936 5.38021 14.9435 5.42933L12.5566 5.6425Z" fill="#CCBFB0"/>
</svg>
