<svg width="23" height="22" viewBox="0 0 23 22" fill="none" xmlns="http://www.w3.org/2000/svg">
<path fill-rule="evenodd" clip-rule="evenodd" d="M17.0681 2.75659C16.0593 1.7478 14.4237 1.7478 13.4149 2.7566C12.4377 3.73378 12.4071 5.29978 13.3231 6.31318C13.6803 6.70836 13.665 7.31418 13.2883 7.69084L8.55027 12.4293C8.17361 12.806 7.56776 12.8213 7.17256 12.4641C6.15915 11.5481 4.59315 11.5787 3.61597 12.5559C2.60718 13.5647 2.60718 15.2003 3.61597 16.2091C4.02206 16.6151 4.52701 16.8567 5.05306 16.9364C5.4864 17.002 5.82653 17.3421 5.89213 17.7754C5.97176 18.3015 6.21334 18.8064 6.61943 19.2125C7.62822 20.2213 9.2638 20.2213 10.2726 19.2125C11.2498 18.2353 11.2804 16.6693 10.3644 15.6559C10.0073 15.2608 10.0225 14.655 10.3991 14.2783L15.1373 9.53981C15.5139 9.16314 16.1198 9.14786 16.5149 9.50505C17.5283 10.421 19.0943 10.3904 20.0715 9.41322C21.0803 8.40443 21.0803 6.76885 20.0715 5.76005C19.6654 5.35397 19.1605 5.11239 18.6344 5.03276C18.2011 4.96716 17.861 4.62703 17.7954 4.19369C17.7157 3.66763 17.4742 3.16268 17.0681 2.75659ZM12.0007 1.34238C13.7905 -0.44746 16.6924 -0.447461 18.4823 1.34238C19.0235 1.8836 19.4017 2.52804 19.6156 3.21248C20.3001 3.42647 20.9445 3.80462 21.4857 4.34584C23.2756 6.13568 23.2756 9.03759 21.4857 10.8274C19.9853 12.3279 17.7038 12.5705 15.9503 11.5552L12.4145 15.0912C13.4298 16.8447 13.1873 19.1262 11.6868 20.6267C9.89697 22.4166 6.99506 22.4166 5.20522 20.6267C4.664 20.0855 4.28585 19.4411 4.07186 18.7566C3.38741 18.5426 2.74298 18.1645 2.20176 17.6233C0.411914 15.8334 0.411915 12.9315 2.20176 11.1417C3.70221 9.64123 5.98368 9.39865 7.73712 10.4139L11.2729 6.87781C10.2577 5.12435 10.5002 2.84285 12.0007 1.34238Z" fill="#CCBFB0"/>
</svg>
