<svg width="23" height="20" viewBox="0 0 23 20" fill="none" xmlns="http://www.w3.org/2000/svg">
<path d="M2.00131 15.9878H20.9986C22.2419 15.9878 23 15.2297 23 13.9864V2.00131C23 0.758072 22.2419 0 20.9986 0H2.00131C0.758074 0 0 0.758072 0 2.00131V13.9864C0 15.2297 0.758074 15.9878 2.00131 15.9878ZM1.78905 11.8335C1.48583 11.8335 1.34179 11.7047 1.34179 11.3787V2.03164C1.34179 1.60712 1.60712 1.34179 2.03164 1.34179H20.9683C21.3928 1.34179 21.6582 1.60712 21.6582 2.03164V11.3787C21.6582 11.7047 21.5141 11.8335 21.2109 11.8335H1.78905ZM8.46768 18.4061H14.5323V15.8665H8.46768V18.4061ZM8.36913 19.3764H14.6308C15.0023 19.3764 15.3055 19.0807 15.3055 18.7092C15.3055 18.3302 15.0023 18.027 14.6308 18.027H8.36913C7.9977 18.027 7.69444 18.3302 7.69444 18.7092C7.69444 19.0807 7.9977 19.3764 8.36913 19.3764Z" fill="#2A2624"/>
</svg>
