<svg width="23" height="21" viewBox="0 0 23 21" fill="none" xmlns="http://www.w3.org/2000/svg">
<g clip-path="url(#clip0_111_19469)">
<path d="M11.7303 17.0298H22.0168C22.4134 17.0298 22.7307 16.7284 22.7307 16.3318C22.7307 15.9353 22.4134 15.626 22.0168 15.626H11.7303C11.3337 15.626 11.0244 15.9353 11.0244 16.3318C11.0244 16.7284 11.3337 17.0298 11.7303 17.0298Z" fill="#2A2624"/>
<path d="M4.35414 20.6858C6.72552 20.6858 8.70033 18.711 8.70033 16.3317C8.70033 13.9445 6.72552 11.9775 4.35414 11.9775C1.95896 11.9775 0 13.9524 0 16.3317C0 18.711 1.9669 20.6858 4.35414 20.6858ZM4.35414 19.401C2.68069 19.401 1.28483 17.9973 1.28483 16.3317C1.28483 14.6662 2.68862 13.2545 4.35414 13.2545C6.01173 13.2545 7.41552 14.6662 7.41552 16.3317C7.41552 17.9973 6.01173 19.401 4.35414 19.401Z" fill="#2A2624"/>
<path d="M11.7303 5.11717H22.0168C22.4134 5.11717 22.7307 4.81579 22.7307 4.41131C22.7307 4.01475 22.4134 3.71338 22.0168 3.71338H11.7303C11.3337 3.71338 11.0244 4.01475 11.0244 4.41131C11.0244 4.81579 11.3337 5.11717 11.7303 5.11717Z" fill="#2A2624"/>
<path d="M4.35414 8.76565C6.72552 8.76565 8.70033 6.79083 8.70033 4.40359C8.70033 2.02427 6.72552 0.057373 4.35414 0.057373C1.95896 0.057373 0 2.02427 0 4.40359C0 6.7829 1.9669 8.76565 4.35414 8.76565ZM3.8307 6.7829C3.64035 6.7829 3.51345 6.6798 3.37862 6.5291L2.15724 5.08565C2.07793 4.98255 2.03827 4.87945 2.03827 4.72082C2.03827 4.45117 2.25242 4.23703 2.51414 4.23703C2.68862 4.23703 2.81552 4.30841 2.93449 4.4591L3.81483 5.54566L5.71828 2.516C5.82932 2.34151 5.98001 2.24634 6.14656 2.24634C6.41621 2.24634 6.63828 2.45255 6.63828 2.69841C6.63828 2.82531 6.59863 2.93634 6.50345 3.0791L4.30656 6.52117C4.19552 6.68772 4.0369 6.7829 3.8307 6.7829Z" fill="#2A2624"/>
</g>
<defs>
<clipPath id="clip0_111_19469">
<rect width="23" height="20.6603" fill="white" transform="translate(0 0.0256348)"/>
</clipPath>
</defs>
</svg>
