<svg width="17" height="19" viewBox="0 0 17 19" fill="none" xmlns="http://www.w3.org/2000/svg">
<path fill-rule="evenodd" clip-rule="evenodd" d="M16.8594 8C16.8594 12.9603 12.2006 16.7558 9.99341 18.2757C9.65389 18.5095 9.48412 18.6264 9.2177 18.6919C9.01798 18.7411 8.70077 18.7411 8.50105 18.6919C8.23463 18.6264 8.06487 18.5095 7.72534 18.2757C5.51818 16.7558 0.859375 12.9603 0.859375 8C0.859375 3.58172 4.4411 0 8.85938 0C13.2777 0 16.8594 3.58172 16.8594 8ZM8.85938 10.5985C10.2945 10.5985 11.4578 9.43515 11.4578 8.00006C11.4578 6.56498 10.2945 5.40161 8.85938 5.40161C7.42429 5.40161 6.26093 6.56498 6.26093 8.00006C6.26093 9.43515 7.42429 10.5985 8.85938 10.5985Z" fill="#CCBFB0"/>
</svg>
