<svg width="33" height="32" viewBox="0 0 33 32" fill="none" xmlns="http://www.w3.org/2000/svg">
<path opacity="0.2" fill-rule="evenodd" clip-rule="evenodd" d="M16.2164 0.3125C7.4414 0.3125 0.347656 7.45854 0.347656 16.2992C0.347656 23.3659 4.89286 29.3478 11.1983 31.465C11.9866 31.6242 12.2754 31.121 12.2754 30.6978C12.2754 30.3272 12.2494 29.0568 12.2494 27.7331C7.83508 28.6862 6.91584 25.8274 6.91584 25.8274C6.20643 23.9747 5.15532 23.4985 5.15532 23.4985C3.71052 22.5191 5.26056 22.5191 5.26056 22.5191C6.86322 22.625 7.70418 24.1601 7.70418 24.1601C9.12267 26.595 11.4084 25.907 12.328 25.4834C12.4592 24.4512 12.8799 23.7366 13.3265 23.3396C9.80576 22.969 6.10152 21.5928 6.10152 15.452C6.10152 13.7052 6.73167 12.2759 7.73016 11.1644C7.57263 10.7675 7.02076 9.12616 7.88803 6.92941C7.88803 6.92941 9.22791 6.50584 12.2491 8.5704C13.5425 8.22046 14.8764 8.04244 16.2164 8.04094C17.5563 8.04094 18.9222 8.22641 20.1834 8.5704C23.2049 6.50584 24.5448 6.92941 24.5448 6.92941C25.4121 9.12616 24.8599 10.7675 24.7023 11.1644C25.7271 12.2759 26.3313 13.7052 26.3313 15.452C26.3313 21.5928 22.6271 22.9424 19.08 23.3396C19.6582 23.8425 20.1571 24.7952 20.1571 26.3039C20.1571 28.4478 20.1311 30.1683 20.1311 30.6975C20.1311 31.121 20.4202 31.6242 21.2082 31.4653C27.5136 29.3475 32.0589 23.3659 32.0589 16.2992C32.0848 7.45854 24.9651 0.3125 16.2164 0.3125Z" fill="#CCBFB0"/>
<path d="M12.2493 27.7331C12.2493 29.0568 12.2753 30.3272 12.2753 30.6978C12.2753 31.1021 12.0117 31.5794 11.3008 31.4824V31.4824C14.5451 32.0316 17.8608 32.032 21.1051 31.4828V31.4828C20.3948 31.5792 20.1311 31.102 20.1311 30.6975C20.1311 30.1683 20.1571 28.4478 20.1571 26.3039C20.1571 24.7952 19.6581 23.8425 19.08 23.3396C22.627 22.9424 26.3312 21.5928 26.3312 15.452C26.3312 13.7052 25.7271 12.2759 24.7023 11.1644C24.8598 10.7675 25.412 9.12617 24.5447 6.92941C24.5447 6.92941 23.2048 6.50584 20.1834 8.5704C18.9221 8.22641 17.5562 8.04094 16.2163 8.04094C14.8764 8.04244 13.5424 8.22046 12.249 8.5704C9.22784 6.50584 7.88796 6.92941 7.88796 6.92941C7.02069 9.12617 7.57256 10.7675 7.73009 11.1644C6.7316 12.2759 6.10145 13.7052 6.10145 15.452C6.10145 21.5928 9.80569 22.969 13.3264 23.3396C12.8798 23.7366 12.4591 24.4512 12.3279 25.4834C11.4084 25.907 9.1226 26.595 7.70411 24.1601C7.70411 24.1601 6.86315 22.625 5.26049 22.5191C5.26049 22.5191 3.71045 22.5191 5.15525 23.4985C5.15525 23.4985 6.20636 23.9747 6.91577 25.8274C6.91577 25.8274 7.83501 28.6862 12.2493 27.7331Z" fill="#CCBFB0"/>
</svg>
