<svg width="33" height="32" viewBox="0 0 33 32" fill="none" xmlns="http://www.w3.org/2000/svg">
<path fill-rule="evenodd" clip-rule="evenodd" d="M16.4043 0C7.49219 0 0.287598 7.2577 0.287598 16.2365C0.287598 23.4137 4.90383 29.489 11.3078 31.6393C12.1084 31.8009 12.4017 31.2899 12.4017 30.8601C12.4017 30.4837 12.3753 29.1934 12.3753 27.8491C7.89202 28.817 6.95842 25.9136 6.95842 25.9136C6.23792 24.0319 5.17038 23.5483 5.17038 23.5483C3.70301 22.5536 5.27727 22.5536 5.27727 22.5536C6.90497 22.6612 7.75907 24.2203 7.75907 24.2203C9.19973 26.6932 11.5212 25.9944 12.4551 25.5643C12.5884 24.5159 13.0156 23.7901 13.4692 23.387C9.8935 23.0105 6.13137 21.6128 6.13137 15.3761C6.13137 13.6019 6.77136 12.1504 7.78546 11.0215C7.62546 10.6183 7.06497 8.95139 7.94579 6.7203C7.94579 6.7203 9.30661 6.29012 12.375 8.38693C13.6886 8.03153 15.0434 7.85073 16.4043 7.8492C17.7651 7.8492 19.1523 8.03757 20.4333 8.38693C23.502 6.29012 24.8628 6.7203 24.8628 6.7203C25.7437 8.95139 25.1828 10.6183 25.0228 11.0215C26.0637 12.1504 26.6773 13.6019 26.6773 15.3761C26.6773 21.6128 22.9151 22.9835 19.3127 23.387C19.8999 23.8976 20.4066 24.8652 20.4066 26.3976C20.4066 28.5749 20.3802 30.3223 20.3802 30.8597C20.3802 31.2899 20.6738 31.8009 21.4741 31.6396C27.8781 29.4887 32.4943 23.4137 32.4943 16.2365C32.5207 7.2577 25.2897 0 16.4043 0Z" fill="#CCBFB0"/>
</svg>
