<svg width="23" height="18" viewBox="0 0 23 18" fill="none" xmlns="http://www.w3.org/2000/svg">
<path d="M9.59526 8.40474L3 2.5854L2.33641 1.92181M9.59526 8.40474L10.5076 9.20973C11.0746 9.71005 11.9254 9.71005 12.4924 9.20973L13.4047 8.40474M9.59526 8.40474L9 9L2 15L1.76513 15.2349M13.4047 8.40474L20 2.5854L20.6636 1.92181M13.4047 8.40474L14 9L21 15L21.2349 15.2349M21.2349 15.2349C21.4052 14.8583 21.5 14.4402 21.5 14V4C21.5 3.19329 21.1816 2.46096 20.6636 1.92181M21.2349 15.2349C20.7641 16.2758 19.7167 17 18.5 17H4.5C3.28335 17 2.23585 16.2758 1.76513 15.2349M20.6636 1.92181C20.1177 1.35363 19.3501 1 18.5 1H4.5C3.64985 1 2.8823 1.35363 2.33641 1.92181M2.33641 1.92181C1.81841 2.46096 1.5 3.19329 1.5 4V14C1.5 14.4402 1.59481 14.8583 1.76513 15.2349" stroke="#2A2624" stroke-width="2" stroke-linecap="round" stroke-linejoin="round"/>
</svg>
