<svg width="15" height="14" viewBox="0 0 15 14" fill="none" xmlns="http://www.w3.org/2000/svg">
<path opacity="0.5" d="M7.49567 13.5536C9.43747 13.5536 10.9718 10.7016 10.9718 7.01739C10.9718 3.30718 9.44614 0.4465 7.49567 0.4465C5.54521 0.4465 4.02818 3.30718 4.02818 7.01739C4.02818 10.7016 5.55388 13.5536 7.49567 13.5536ZM7.49567 1.39139C8.7873 1.39139 9.94892 4.02669 9.94892 7.01739C9.94892 9.97343 8.7873 12.6087 7.49567 12.6087C6.2127 12.6087 5.05108 9.97343 5.05108 7.01739C5.05108 4.02669 6.2127 1.39139 7.49567 1.39139ZM6.99288 0.541856V13.4236H7.99845V0.541856H6.99288ZM7.49567 9.45331C5.38917 9.45331 3.49938 10.0168 2.55449 10.927L3.32601 11.5598C4.21021 10.849 5.66657 10.4589 7.49567 10.4589C9.33343 10.4589 10.7811 10.849 11.674 11.5598L12.4455 10.927C11.492 10.0168 9.61083 9.45331 7.49567 9.45331ZM13.7372 6.49727H1.25418V7.50285H13.7372V6.49727ZM7.49567 4.58148C9.61083 4.58148 11.492 4.01802 12.4455 3.10781L11.674 2.47498C10.7811 3.18582 9.33343 3.57591 7.49567 3.57591C5.66657 3.57591 4.21021 3.18582 3.32601 2.47498L2.55449 3.10781C3.49938 4.01802 5.38917 4.58148 7.49567 4.58148ZM7.49567 13.9957C11.3619 13.9957 14.5 10.8663 14.5 7.00007C14.5 3.1338 11.3619 0.00439453 7.49567 0.00439453C3.63808 0.00439453 0.5 3.1338 0.5 7.00007C0.5 10.8663 3.63808 13.9957 7.49567 13.9957ZM7.49567 12.9555C4.21021 12.9555 1.54892 10.2855 1.54892 7.00007C1.54892 3.71461 4.21021 1.04464 7.49567 1.04464C10.7811 1.04464 13.4511 3.71461 13.4511 7.00007C13.4511 10.2855 10.7811 12.9555 7.49567 12.9555Z" fill="white"/>
</svg>
