<svg width="33" height="32" viewBox="0 0 33 32" fill="none" xmlns="http://www.w3.org/2000/svg">
<g clip-path="url(#clip0_29_26)">
<path d="M26.12 0H7.45329C3.77195 0 0.786621 2.98533 0.786621 6.66667V25.3333C0.786621 29.0147 3.77195 32 7.45329 32H26.12C29.8026 32 32.7866 29.0147 32.7866 25.3333V6.66667C32.7866 2.98533 29.8026 0 26.12 0ZM11.4533 25.3333H7.45329V10.6667H11.4533V25.3333ZM9.45329 8.976C8.16529 8.976 7.11995 7.92267 7.11995 6.624C7.11995 5.32533 8.16529 4.272 9.45329 4.272C10.7413 4.272 11.7866 5.32533 11.7866 6.624C11.7866 7.92267 10.7426 8.976 9.45329 8.976ZM27.4533 25.3333H23.4533V17.8613C23.4533 13.3707 18.12 13.7107 18.12 17.8613V25.3333H14.12V10.6667H18.12V13.02C19.9813 9.572 27.4533 9.31733 27.4533 16.3213V25.3333Z" fill="#CCBFB0"/>
</g>
<defs>
<clipPath id="clip0_29_26">
<rect width="32" height="32" fill="white" transform="translate(0.786621)"/>
</clipPath>
</defs>
</svg>
