<svg width="33" height="32" viewBox="0 0 33 32" fill="none" xmlns="http://www.w3.org/2000/svg">
<path fill-rule="evenodd" clip-rule="evenodd" d="M16.3335 32C25.1701 32 32.3335 24.8366 32.3335 16C32.3335 7.16344 25.1701 0 16.3335 0C7.49694 0 0.333496 7.16344 0.333496 16C0.333496 24.8366 7.49694 32 16.3335 32ZM22.7668 8.09371C23.5853 7.73435 24.4605 8.46094 24.3181 9.38147L22.2098 23.0013C22.0816 23.8292 21.2002 24.2608 20.5151 23.8312L14.4065 20.0005C13.7699 19.6013 13.6648 18.6767 14.1941 18.131L19.6501 12.5059C19.8454 12.3045 19.5962 11.9795 19.3677 12.1375L11.788 17.3741C11.2277 17.7612 10.5329 17.8668 9.89129 17.6625L6.52937 16.5919C5.9206 16.398 5.87766 15.509 6.46462 15.2512L22.7668 8.09371Z" fill="#CCBFB0" fill-opacity="0.2"/>
<path d="M24.3181 9.38147C24.4605 8.46094 23.5853 7.73435 22.7668 8.09371L6.46462 15.2512C5.87766 15.509 5.9206 16.398 6.52937 16.5919L9.89129 17.6625C10.5329 17.8668 11.2277 17.7612 11.788 17.3741L19.3677 12.1375C19.5962 11.9795 19.8454 12.3045 19.6501 12.5059L14.1941 18.131C13.6648 18.6767 13.7699 19.6013 14.4065 20.0005L20.5151 23.8312C21.2002 24.2608 22.0816 23.8292 22.2098 23.0013L24.3181 9.38147Z" fill="#CCBFB0"/>
</svg>
